<?xml version="1.0" encoding="UTF-8" standalone="no"?>
<svg width="32px" height="24px" viewBox="0 0 32 24" version="1.1" xmlns="http://www.w3.org/2000/svg" xmlns:xlink="http://www.w3.org/1999/xlink" xmlns:sketch="http://www.bohemiancoding.com/sketch/ns">
    <!-- Generator: Sketch 3.3.2 (12043) - http://www.bohemiancoding.com/sketch -->
    <title>noun_30451_cc</title>
    <desc>Created with Sketch.</desc>
    <defs></defs>
    <g id="mobile" stroke="none" stroke-width="1" fill="none" fill-rule="evenodd" sketch:type="MSPage">
        <g id="noun_30451_cc" sketch:type="MSLayerGroup" fill="#777777">
            <path d="M30.0116677,10.4423331 L4.83643238,10.4423331 L12.3651173,2.41576843 C12.8590353,1.92451165 12.8590353,1.12792288 12.3651173,0.635368195 C11.8695788,0.144111415 11.0680963,0.144111415 10.5741783,0.635368195 L0.247272727,11.7279074 L10.4156967,22.8976718 C10.6633039,23.1436247 10.986749,23.2669256 11.3111662,23.2669256 C11.6346113,23.2669256 11.9590285,23.1436247 12.2066357,22.8976718 C12.7005538,22.4054416 12.7005538,21.6098263 12.2066357,21.1175961 L4.75508499,12.9596185 L30.0116677,12.9596185 C30.7100886,12.9596185 31.2775758,12.3960036 31.2775758,11.7009758 C31.2775758,11.0059481 30.7100886,10.4423331 30.0116677,10.4423331 L30.0116677,10.4423331 Z" id="Shape" sketch:type="MSShapeGroup"></path>
        </g>
    </g>
</svg>